# xmcd
#
# Track frame offsets:
#	150
#	19848
#	36132
#	58866
#	75152
#	94362
#	112517
#	129742
#	145900
#	161986
#	179420
#
# Disc length: 2702 seconds
#
# Revision: 0
# Processed by: cddbd v1.5.2PL0 Copyright (c) Steve Scherf et al.
# Submitted via: EZCDAudioConverter 1.3.4.1
#
DISCID=8e0a8c0b
DTITLE=Ann Nesby - Living My Life
DYEAR=2014
DGENRE=Soul
TTITLE0=Living My Life
TTITLE1=Remember
TTITLE2=Through With You
TTITLE3=Let It Be 
TTITLE4=Point Of Veiw
TTITLE5=This Is The Love (feat Lewis Sky)
TTITLE6=Cannonball
TTITLE7=Higher
TTITLE8=Alright
TTITLE9=In The Morning
TTITLE10=I See Beyond
EXTD=
EXTT0=
EXTT1=
EXTT2=
EXTT3=
EXTT4=
EXTT5=
EXTT6=
EXTT7=
EXTT8=
EXTT9=
EXTT10=
PLAYORDER=
